<svg width="16" height="16" viewBox="0 0 16 16" fill="none" xmlns="http://www.w3.org/2000/svg">
<path d="M11.9102 0.875C12.9718 0.875 13.9931 1.29458 14.7444 2.04746C15.4965 2.79875 15.9168 3.81208 15.9168 4.87292V11.1271C15.9168 13.3358 14.1197 15.125 11.9102 15.125H4.08933C1.87979 15.125 0.0834961 13.3358 0.0834961 11.1271V4.87292C0.0834961 2.66417 1.87187 0.875 4.08933 0.875H11.9102ZM12.8056 4.99167C12.6393 4.98296 12.481 5.03917 12.3615 5.15L8.79183 8C8.33266 8.38079 7.67479 8.38079 7.2085 8L3.646 5.15C3.39979 4.96792 3.05937 4.99167 2.85433 5.20542C2.64058 5.41917 2.61683 5.75958 2.79812 5.99708L2.90183 6.1L6.50391 8.91042C6.94725 9.25875 7.48479 9.44875 8.04766 9.44875C8.60896 9.44875 9.156 9.25875 9.59854 8.91042L13.1697 6.0525L13.2331 5.98917C13.4223 5.75958 13.4223 5.42708 13.2244 5.1975C13.1143 5.07954 12.9631 5.0075 12.8056 4.99167Z" fill="white"/>
</svg>
